<?xml version="1.0" standalone="no"?>
<!DOCTYPE svg PUBLIC "-//W3C//DTD SVG 20010904//EN"
 "http://www.w3.org/TR/2001/REC-SVG-20010904/DTD/svg10.dtd">
<svg version="1.0" xmlns="http://www.w3.org/2000/svg"
 width="512.000000pt" height="512.000000pt" viewBox="0 0 512.000000 512.000000"
 preserveAspectRatio="xMidYMid meet">
<metadata>
Created by potrace 1.11, written by Peter Selinger 2001-2013
</metadata>
<g transform="translate(0.000000,512.000000) scale(0.100000,-0.100000)"
fill="#000000" stroke="none">
<path d="M693 4337 c-17 -7 -35 -15 -39 -19 -4 -5 -15 -8 -25 -8 -21 0 -62
-52 -78 -99 -8 -25 -11 -527 -11 -1881 0 -1984 -3 -1876 49 -1941 11 -15 41
-36 66 -48 l45 -21 1860 0 1860 0 45 21 c25 12 55 33 66 48 52 65 49 -43 49
1941 0 1354 -3 1856 -11 1881 -15 43 -56 99 -73 99 -7 0 -28 8 -47 18 -30 15
-71 17 -311 20 l-278 3 0 -178 c0 -203 -10 -239 -75 -289 -74 -56 -203 -39
-252 33 -39 58 -43 81 -43 258 l0 175 -954 0 -953 0 -7 -181 c-8 -195 -13
-219 -54 -263 -88 -94 -256 -63 -300 55 -6 14 -13 107 -17 207 l-8 182 -236
-1 c-154 0 -247 -5 -268 -12z m3865 -2468 c2 -1475 5 -1388 -53 -1457 -13 -16
-45 -39 -70 -51 l-45 -21 -1830 0 -1830 0 -45 21 c-25 12 -57 35 -70 51 -58
69 -55 -17 -55 1453 0 743 3 1355 7 1358 3 4 902 6 1997 5 l1991 -3 3 -1356z"/>
<path d="M2240 2796 c-162 -63 -506 -195 -765 -294 -258 -99 -478 -184 -487
-187 -10 -4 -18 -10 -18 -14 0 -4 185 -91 410 -195 l410 -189 0 -397 0 -397
-24 -22 c-36 -34 -40 -66 -16 -116 l21 -44 -20 -40 c-32 -62 -60 -176 -70
-291 -6 -57 -8 -107 -5 -109 2 -3 14 5 26 17 l22 22 28 -27 28 -27 23 22 c29
27 39 27 62 2 l18 -20 27 25 27 25 18 -20 c33 -37 38 -25 32 78 -8 115 -35
229 -72 302 -15 30 -23 55 -17 59 17 11 32 49 32 81 0 22 -9 41 -30 62 -27 26
-30 36 -30 89 0 32 2 59 6 59 3 0 31 -17 62 -39 119 -81 263 -139 409 -167
125 -23 333 -15 464 19 107 28 263 102 387 184 l82 54 0 298 c0 227 3 301 13
308 6 5 197 94 422 197 226 104 412 190 414 192 10 10 16 7 -1161 458 -225 86
-414 156 -420 156 -7 -1 -146 -52 -308 -114z m770 -1366 l0 -209 -47 -22 c-27
-11 -78 -32 -115 -44 l-68 -24 0 215 0 215 49 -2 c43 -2 57 2 113 39 34 23 64
42 66 42 1 0 2 -94 2 -210z"/>
</g>
</svg>
