<?xml version="1.0" standalone="no"?>
<!DOCTYPE svg PUBLIC "-//W3C//DTD SVG 20010904//EN"
        "http://www.w3.org/TR/2001/REC-SVG-20010904/DTD/svg10.dtd">
<svg version="1.0" xmlns="http://www.w3.org/2000/svg"
     width="16.000000pt" height="16.000000pt" viewBox="0 0 16.000000 16.000000"
     preserveAspectRatio="xMidYMid meet">
    <metadata>
        Created by potrace 1.11, written by Peter Selinger 2001-2013
    </metadata>
    <g transform="translate(0.000000,16.000000) scale(0.003125,-0.003125)"
       fill="#000000" stroke="none">
        <path d="M1345 4790 c-65 -15 -106 -51 -135 -119 -11 -27 -15 -72 -15 -174 l1
-138 -30 1 c-17 1 -35 1 -41 0 -5 -1 -14 -2 -19 -1 -12 2 -218 2 -231 0 -5 -1
-14 -1 -19 0 -21 4 -114 1 -141 -4 -16 -3 -54 -18 -84 -33 -41 -20 -60 -37
-75 -67 -21 -40 -21 -44 -24 -1905 -2 -1408 1 -1872 9 -1895 21 -52 57 -92
103 -114 l46 -21 1865 0 1865 0 46 21 c46 22 82 62 103 114 8 23 11 487 9
1895 l-3 1865 -21 40 c-13 26 -35 48 -62 62 -56 30 -140 54 -147 43 -3 -5 -15
-6 -28 -1 -13 5 -30 5 -38 1 -8 -5 -21 -5 -28 -1 -7 5 -30 5 -51 1 -21 -4 -44
-4 -51 1 -7 4 -20 4 -29 -1 -9 -5 -22 -5 -29 -1 -7 5 -30 5 -51 1 -21 -4 -44
-3 -52 1 -8 4 -19 5 -25 1 -6 -4 -32 -6 -56 -4 l-44 4 0 131 c0 154 -5 178
-47 234 -60 80 -205 86 -272 11 -54 -61 -58 -74 -58 -227 -1 -160 3 -151 -71
-151 -71 0 -122 0 -150 1 -28 0 -37 0 -67 -2 -7 0 -64 1 -126 1 -62 1 -115 0
-117 -2 -2 -2 -34 -1 -70 2 -37 3 -68 3 -70 -1 -3 -3 -25 -3 -50 1 -25 4 -45
3 -45 -2 0 -5 -4 -6 -10 -3 -5 3 -49 6 -97 5 -49 0 -97 0 -108 0 -11 0 -36 0
-55 -1 -19 -1 -41 -1 -47 0 -7 1 -20 1 -28 1 -8 0 -23 0 -32 0 -10 0 -34 0
-53 -1 -19 -1 -41 -1 -47 0 -7 1 -20 1 -28 1 -8 0 -23 0 -32 0 -10 0 -34 0
-53 -1 -19 -1 -41 -1 -47 0 -7 1 -20 1 -28 1 -8 0 -23 0 -32 0 -10 0 -34 0
-53 -1 -43 -2 -54 -2 -108 3 -24 2 -45 0 -48 -3 -2 -4 -17 -4 -33 1 -16 4 -32
6 -34 3 -3 -2 -34 -4 -69 -3 -34 1 -74 1 -87 1 -20 -1 -23 3 -19 24 3 14 1 25
-4 25 -5 0 -6 5 -2 11 12 19 8 229 -5 242 -6 6 -11 17 -11 24 0 20 -42 63 -80
83 -45 22 -87 29 -125 20z"/>
    </g>
</svg>
